<?xml version="1.0" encoding="UTF-8"?>
<svg id="Layer_2" data-name="Layer 2" xmlns="http://www.w3.org/2000/svg" viewBox="0 0 258 380.9">
  <defs>
    <style>
      .cls-1 {
        fill: #fff;
      }

      .cls-2 {
        stroke-width: 8px;
      }

      .cls-2, .cls-3 {
        fill: none;
        stroke: #006d77;
        stroke-linejoin: round;
      }

      .cls-4 {
        fill: #83c5be;
      }

      .cls-3 {
        stroke-width: 5px;
      }

      .cls-5 {
        fill: #006d77;
      }
    </style>
  </defs>
  <g id="Layer_1-2" data-name="Layer 1">
    <g>
      <path class="cls-4" d="m8,309.16h139.69v63.74h64.87v-63.74h37.44v-52.5h-37.44v-125.76h-118.87L8,268.48v40.68Zm139.69-52.5h-80.04l73.74-115.04,6.3-11.2v126.24Z"/>
      <rect class="cls-2" x="4" y="126.9" width="250" height="250"/>
      <g>
        <path class="cls-5" d="m100.16,24.59L106.61,0h7.27l-10.34,34.12h-6.7L86.52,0h7.27l6.38,24.59Z"/>
        <path class="cls-5" d="m133.75,34.12c-.16-.31-.29-.67-.4-1.08s-.2-.84-.28-1.29c-.36.39-.77.76-1.24,1.1s-.99.64-1.56.9-1.2.46-1.89.61-1.43.22-2.23.22c-1.3,0-2.49-.19-3.57-.56s-2.02-.9-2.8-1.57-1.39-1.47-1.83-2.4-.66-1.94-.66-3.04c0-2.67,1-4.74,2.99-6.2s4.96-2.19,8.92-2.19h3.63v-1.5c0-1.22-.4-2.18-1.2-2.89s-1.95-1.07-3.45-1.07c-1.33,0-2.3.29-2.91.86s-.91,1.33-.91,2.29h-6.52c0-1.08.24-2.1.71-3.07s1.17-1.82,2.09-2.55,2.03-1.32,3.35-1.75,2.83-.64,4.54-.64c1.53,0,2.96.19,4.28.56s2.46.93,3.43,1.66,1.73,1.66,2.27,2.78.82,2.41.82,3.88v10.88c0,1.36.09,2.48.26,3.38s.42,1.66.75,2.3v.4h-6.61Zm-6.21-4.57c.66,0,1.27-.08,1.83-.23s1.07-.36,1.52-.61.84-.54,1.17-.86.59-.64.77-.97v-4.36h-3.33c-1.02,0-1.88.1-2.6.29s-1.3.47-1.76.82-.79.77-1.01,1.27-.33,1.03-.33,1.61c0,.88.31,1.6.93,2.18s1.55.87,2.8.87Z"/>
        <path class="cls-5" d="m164.92,8.3c.98,0,1.89.07,2.73.2s1.51.28,2.03.43l-.96,6.49c-.86-.2-1.74-.36-2.64-.46s-1.75-.15-2.57-.15c-1.83,0-3.29.35-4.39,1.05s-1.93,1.71-2.47,3.02v15.23h-6.52V8.77h6.07l.3,4.15c1.03-1.44,2.27-2.57,3.7-3.39s3.01-1.23,4.71-1.23Z"/>
        <path class="cls-5" d="m65.07,77.85c0-2.2.17-4.28.5-6.22s.79-3.74,1.37-5.39,1.25-3.15,2.03-4.51,1.59-2.56,2.45-3.61,1.75-1.93,2.66-2.66,1.8-1.29,2.66-1.68l1.27,3.56c-.88.67-1.75,1.57-2.62,2.71s-1.66,2.54-2.36,4.22-1.26,3.64-1.7,5.87-.66,4.79-.66,7.66v.61c0,2.89.22,5.45.66,7.69s1,4.19,1.7,5.87,1.48,3.09,2.36,4.23,1.75,2.05,2.62,2.72l-1.27,3.52c-.86-.39-1.75-.95-2.66-1.69s-1.8-1.62-2.66-2.66-1.68-2.24-2.45-3.6-1.45-2.86-2.03-4.51-1.04-3.44-1.37-5.38-.5-4.02-.5-6.23v-.52Z"/>
        <path class="cls-5" d="m95,66.37l.4,3.52c.91-1.27,2.01-2.25,3.3-2.94s2.73-1.04,4.31-1.04c1.28,0,2.45.19,3.52.56s1.98.97,2.75,1.79,1.38,1.88,1.8,3.16.64,2.86.64,4.7v15.61h-6.52v-15.52c0-1-.11-1.82-.34-2.47s-.55-1.16-.97-1.54-.93-.64-1.52-.79-1.27-.22-2.02-.22c-1.11,0-2.05.22-2.84.67s-1.41,1.06-1.9,1.84v18.02h-6.54v-25.36h5.91Z"/>
        <path class="cls-5" d="m130.21,92.19c-1.95,0-3.73-.32-5.32-.96s-2.96-1.51-4.1-2.61-2.02-2.4-2.64-3.89-.93-3.09-.93-4.79v-.94c0-1.94.3-3.71.91-5.31s1.46-2.98,2.55-4.14,2.39-2.05,3.89-2.7,3.13-.96,4.9-.96,3.46.3,4.89.9,2.64,1.45,3.63,2.54,1.75,2.41,2.26,3.95.77,3.24.77,5.1v2.77h-17.2c.12.86.38,1.64.76,2.36s.87,1.32,1.46,1.84,1.27.91,2.04,1.2,1.6.42,2.51.42c.64,0,1.28-.06,1.91-.19s1.24-.31,1.82-.55,1.12-.54,1.62-.9.94-.78,1.31-1.27l3.26,3.52c-.41.58-.93,1.14-1.58,1.7s-1.41,1.05-2.3,1.48-1.86.78-2.94,1.04-2.24.4-3.49.4Zm-.77-21.02c-.73,0-1.41.13-2.02.39s-1.14.63-1.61,1.11-.85,1.06-1.16,1.73-.55,1.42-.7,2.25h10.69v-.52c-.03-.69-.16-1.34-.4-1.95s-.57-1.14-1.01-1.58-.97-.8-1.61-1.05-1.36-.39-2.19-.39Z"/>
        <path class="cls-5" d="m162.93,83.78l2.2-17.41h5.98l-4.55,25.36h-5.72l-3.33-16.12-3.21,16.12h-5.72l-4.55-25.36h5.95l2.2,17.48,3.19-17.48h4.36l3.19,17.41Z"/>
        <path class="cls-5" d="m192.86,78.37c0,2.14-.17,4.17-.52,6.08s-.81,3.7-1.41,5.36-1.29,3.17-2.07,4.54-1.63,2.59-2.52,3.66-1.8,1.98-2.74,2.73-1.85,1.32-2.74,1.71l-1.24-3.52c.86-.66,1.73-1.55,2.6-2.7s1.66-2.55,2.37-4.22,1.27-3.63,1.71-5.88.66-4.82.66-7.71v-.61c0-2.88-.23-5.44-.68-7.69s-1.03-4.22-1.73-5.91-1.49-3.1-2.36-4.24-1.72-2.04-2.57-2.7l1.24-3.49c.89.39,1.8.96,2.74,1.71s1.85,1.66,2.74,2.73,1.73,2.29,2.52,3.66,1.48,2.88,2.07,4.54,1.06,3.44,1.41,5.36.52,3.94.52,6.08v.52Z"/>
      </g>
      <rect class="cls-3" x="43.97" y="243.84" width="79.37" height="79.37"/>
      <g>
        <path class="cls-5" d="m70.35,191.82l3.22-12.29h3.63l-5.17,17.06h-3.35l-5.16-17.06h3.63l3.19,12.29Z"/>
        <path class="cls-5" d="m87.14,196.59c-.08-.16-.14-.34-.2-.54s-.1-.42-.14-.64c-.18.2-.39.38-.62.55s-.49.32-.78.45-.6.23-.94.3-.71.11-1.11.11c-.65,0-1.24-.09-1.79-.28s-1.01-.45-1.4-.79-.7-.74-.91-1.2-.33-.97-.33-1.52c0-1.34.5-2.37,1.49-3.1s2.48-1.1,4.46-1.1h1.82v-.75c0-.61-.2-1.09-.6-1.45s-.97-.53-1.72-.53c-.66,0-1.15.14-1.45.43s-.46.67-.46,1.14h-3.26c0-.54.12-1.05.36-1.54s.59-.91,1.04-1.28,1.02-.66,1.68-.87,1.42-.32,2.27-.32c.77,0,1.48.09,2.14.28s1.23.46,1.72.83.86.83,1.14,1.39.41,1.21.41,1.94v5.44c0,.68.04,1.24.13,1.69s.21.83.38,1.15v.2h-3.3Zm-3.11-2.29c.33,0,.63-.04.91-.12s.54-.18.76-.3.42-.27.59-.43.29-.32.39-.49v-2.18h-1.66c-.51,0-.94.05-1.3.15s-.65.23-.88.41-.39.39-.5.63-.16.51-.16.8c0,.44.15.8.46,1.09s.78.43,1.4.43Z"/>
        <path class="cls-5" d="m102.73,183.68c.49,0,.95.03,1.37.1s.76.14,1.01.22l-.48,3.25c-.43-.1-.87-.18-1.32-.23s-.88-.08-1.28-.08c-.91,0-1.65.18-2.2.53s-.96.86-1.24,1.51v7.62h-3.26v-12.68h3.04l.15,2.07c.52-.72,1.13-1.28,1.85-1.69s1.5-.62,2.36-.62Z"/>
        <path class="cls-5" d="m52.81,218.45c0-1.1.08-2.14.25-3.11s.4-1.87.69-2.7.63-1.58,1.01-2.26.79-1.28,1.22-1.8.87-.97,1.33-1.33.9-.64,1.33-.84l.63,1.78c-.44.34-.88.79-1.31,1.35s-.83,1.27-1.18,2.11-.63,1.82-.85,2.94-.33,2.39-.33,3.83v.3c0,1.45.11,2.73.33,3.84s.5,2.1.85,2.94.74,1.54,1.18,2.12.88,1.02,1.31,1.36l-.63,1.76c-.43-.2-.87-.48-1.33-.84s-.9-.81-1.33-1.33-.84-1.12-1.22-1.8-.72-1.43-1.01-2.26-.52-1.72-.69-2.69-.25-2.01-.25-3.12v-.26Z"/>
        <path class="cls-5" d="m64.37,218.93c0-.92.13-1.78.4-2.56s.65-1.47,1.17-2.04,1.14-1.03,1.88-1.36,1.58-.49,2.54-.49,1.8.16,2.54.49,1.37.78,1.88,1.36.9,1.26,1.17,2.04.4,1.64.4,2.56v.25c0,.93-.13,1.79-.4,2.57s-.65,1.47-1.16,2.04-1.13,1.03-1.88,1.35-1.59.49-2.53.49-1.8-.16-2.55-.49-1.38-.78-1.89-1.35-.9-1.26-1.17-2.04-.4-1.64-.4-2.57v-.25Zm3.26.25c0,.53.05,1.03.15,1.49s.26.87.48,1.22.5.62.85.83.77.3,1.26.3.89-.1,1.23-.3.62-.48.84-.83.37-.75.47-1.22.15-.96.15-1.49v-.25c0-.52-.05-1-.15-1.46s-.26-.87-.47-1.22-.49-.63-.84-.83-.76-.3-1.25-.3-.9.1-1.24.3-.62.48-.84.83-.38.76-.48,1.22-.15.95-.15,1.46v.25Z"/>
        <path class="cls-5" d="m79.9,207.39h7.09v15.35h3.63v2.65h-10.72v-2.65h3.8v-12.69h-3.8v-2.66Z"/>
        <path class="cls-5" d="m93.28,218.96c0-.96.11-1.84.33-2.64s.55-1.48.98-2.05.95-1.01,1.56-1.32,1.31-.47,2.1-.47c.66,0,1.25.12,1.75.36s.95.58,1.34,1.01v-6.46h3.27v18h-2.94l-.16-1.32c-.4.49-.87.88-1.41,1.15s-1.16.41-1.88.41c-.77,0-1.47-.16-2.08-.49s-1.13-.77-1.56-1.34-.75-1.25-.98-2.03-.34-1.64-.34-2.56v-.25Zm3.26.25c0,.53.04,1.03.13,1.48s.24.86.44,1.2.46.61.79.8.71.29,1.17.29c.56,0,1.03-.12,1.4-.36s.67-.57.88-1v-5.13c-.22-.43-.51-.76-.88-1s-.83-.36-1.38-.36c-.46,0-.85.1-1.18.3s-.59.47-.79.82-.35.75-.45,1.22-.14.96-.14,1.49v.25Z"/>
        <path class="cls-5" d="m116.7,218.71c0,1.07-.09,2.08-.26,3.04s-.41,1.85-.7,2.68-.64,1.58-1.04,2.27-.81,1.29-1.26,1.83-.9.99-1.37,1.37-.93.66-1.37.86l-.62-1.76c.43-.33.86-.78,1.3-1.35s.83-1.27,1.18-2.11.64-1.82.86-2.94.33-2.41.33-3.86v-.3c0-1.44-.11-2.72-.34-3.84s-.52-2.11-.87-2.95-.74-1.55-1.18-2.12-.86-1.02-1.28-1.35l.62-1.75c.45.2.9.48,1.37.86s.93.83,1.37,1.37.87,1.14,1.26,1.83.74,1.44,1.04,2.27.53,1.72.7,2.68.26,1.97.26,3.04v.26Z"/>
      </g>
      <path class="cls-1" d="m94.87,299.76h-23.27v-4.45l11.04-11.86c.86-.94,1.59-1.79,2.18-2.55s1.07-1.46,1.44-2.1.63-1.22.8-1.77.25-1.08.25-1.59c0-.77-.11-1.45-.33-2.04s-.53-1.1-.93-1.51-.88-.73-1.43-.95-1.17-.33-1.84-.33c-1.8,0-3.14.5-4.02,1.5s-1.32,2.4-1.32,4.2h-6.54c0-1.52.29-2.95.87-4.3s1.39-2.54,2.45-3.55,2.33-1.82,3.82-2.4,3.14-.88,4.96-.88,3.27.24,4.61.73,2.45,1.16,3.35,2.04,1.58,1.93,2.05,3.15.7,2.58.7,4.07c0,1.12-.18,2.2-.53,3.22s-.85,2.04-1.5,3.04-1.43,2.02-2.33,3.06-1.91,2.13-3.02,3.27l-6.42,6.8h14.98v5.23Z"/>
      <g>
        <path class="cls-1" d="m157.22,280.73h8.58v5.95h-8.58v9.66h-6.21v-9.66h-8.6v-5.95h8.6v-9.23h6.21v9.23Z"/>
        <path class="cls-1" d="m214.87,299.76h-23.27v-4.45l11.04-11.86c.86-.94,1.59-1.79,2.18-2.55s1.07-1.46,1.44-2.1.63-1.22.8-1.77.25-1.08.25-1.59c0-.77-.11-1.45-.33-2.04s-.53-1.1-.93-1.51-.88-.73-1.43-.95-1.17-.33-1.84-.33c-1.8,0-3.14.5-4.02,1.5s-1.32,2.4-1.32,4.2h-6.54c0-1.52.29-2.95.87-4.3s1.39-2.54,2.45-3.55,2.33-1.82,3.82-2.4,3.14-.88,4.96-.88,3.27.24,4.61.73,2.45,1.16,3.35,2.04,1.58,1.93,2.05,3.15.7,2.58.7,4.07c0,1.12-.18,2.2-.53,3.22s-.85,2.04-1.5,3.04-1.43,2.02-2.33,3.06-1.91,2.13-3.02,3.27l-6.42,6.8h14.98v5.23Z"/>
      </g>
      <path class="cls-1" d="m157.16,280.48h8.58v5.95h-8.58v9.66h-6.21v-9.66h-8.6v-5.95h8.6v-9.23h6.21v9.23Z"/>
    </g>
  </g>
</svg>