<?xml version="1.0" encoding="UTF-8"?>
<svg id="Layer_2" data-name="Layer 2" xmlns="http://www.w3.org/2000/svg" viewBox="0 0 183 107.23">
  <defs>
    <style>
      .cls-1 {
        fill: #006d77;
      }
    </style>
  </defs>
  <g id="Layer_1-2" data-name="Layer 1">
    <g>
      <g>
        <path d="m33.46,29.91c-.14,2.15-.6,4.08-1.39,5.8-.79,1.72-1.85,3.18-3.18,4.39-1.33,1.21-2.91,2.14-4.75,2.8s-3.87.98-6.09.98c-2.52,0-4.76-.46-6.71-1.39s-3.59-2.23-4.92-3.9-2.34-3.68-3.05-6.02-1.05-4.92-1.05-7.73v-5.74c0-2.83.37-5.42,1.11-7.76s1.8-4.35,3.16-6.04c1.37-1.68,3.02-2.98,4.97-3.91,1.94-.93,4.13-1.39,6.55-1.39s4.43.33,6.25,1c1.83.66,3.38,1.61,4.67,2.84s2.3,2.73,3.05,4.51c.74,1.78,1.21,3.78,1.41,6.01h-8.2c-.08-1.27-.27-2.38-.57-3.34-.3-.96-.74-1.75-1.32-2.39-.58-.63-1.3-1.11-2.17-1.44s-1.91-.48-3.12-.48-2.37.27-3.31.82c-.94.55-1.71,1.35-2.33,2.4s-1.07,2.35-1.36,3.88c-.29,1.53-.44,3.28-.44,5.23v5.8c0,4.2.59,7.31,1.77,9.32,1.18,2.01,3.05,3.02,5.61,3.02,2.15,0,3.85-.57,5.1-1.71s1.94-2.99,2.08-5.55h8.23Z"/>
        <path d="m39.02,27.13c0-2.3.33-4.44,1-6.4s1.64-3.67,2.92-5.11c1.28-1.45,2.84-2.58,4.69-3.4s3.96-1.23,6.34-1.23,4.5.41,6.36,1.23,3.42,1.95,4.7,3.4c1.28,1.45,2.25,3.15,2.92,5.11s1,4.1,1,6.4v.62c0,2.32-.33,4.47-1,6.43s-1.63,3.67-2.9,5.11c-1.27,1.45-2.83,2.57-4.69,3.38s-3.96,1.22-6.33,1.22-4.51-.41-6.37-1.22-3.44-1.94-4.72-3.38c-1.28-1.45-2.25-3.15-2.92-5.11s-1-4.11-1-6.43v-.62Zm8.14.62c0,1.33.13,2.57.38,3.74.25,1.16.65,2.18,1.2,3.05.55.87,1.25,1.56,2.12,2.07.87.51,1.92.76,3.15.76s2.22-.25,3.08-.76c.86-.51,1.56-1.2,2.09-2.07.54-.87.93-1.88,1.19-3.05.25-1.16.38-2.41.38-3.74v-.62c0-1.29-.13-2.51-.38-3.66-.25-1.15-.65-2.17-1.19-3.05s-1.24-1.57-2.09-2.08c-.86-.51-1.9-.76-3.13-.76s-2.25.25-3.11.76c-.86.51-1.56,1.2-2.11,2.08s-.95,1.89-1.2,3.05c-.25,1.15-.38,2.37-.38,3.66v.62Z"/>
        <path d="m83.53,11.57l.5,4.39c1.13-1.58,2.51-2.81,4.13-3.68,1.62-.87,3.42-1.3,5.39-1.3,1.6,0,3.07.23,4.39.7s2.48,1.22,3.44,2.24,1.72,2.34,2.26,3.96.81,3.57.81,5.87v19.51h-8.14v-19.39c0-1.25-.14-2.28-.42-3.09-.28-.81-.69-1.45-1.22-1.92s-1.16-.8-1.9-.98c-.74-.19-1.58-.28-2.52-.28-1.39,0-2.57.28-3.54.83s-1.77,1.32-2.37,2.3v22.53h-8.17V11.57h7.38Z"/>
        <path d="m132.6,34.57c0-.49-.11-.92-.34-1.29-.22-.37-.62-.72-1.2-1.04s-1.34-.62-2.3-.89c-.96-.27-2.17-.55-3.63-.82-1.86-.37-3.55-.83-5.08-1.39s-2.85-1.23-3.94-2.02-1.95-1.7-2.56-2.74c-.62-1.04-.92-2.23-.92-3.57s.31-2.56.94-3.75c.62-1.19,1.52-2.24,2.7-3.13,1.17-.9,2.6-1.61,4.28-2.14s3.57-.79,5.68-.79,4.19.26,5.95.78c1.76.52,3.25,1.23,4.47,2.14s2.15,1.99,2.8,3.24c.64,1.25.97,2.61.97,4.07h-8.14c0-1.23-.5-2.26-1.49-3.09-1-.83-2.51-1.25-4.54-1.25-1.89,0-3.33.34-4.29,1.03-.97.68-1.45,1.52-1.45,2.52,0,.47.1.9.29,1.3.2.4.54.76,1.04,1.08s1.18.62,2.04.88,1.95.49,3.28.69c1.91.31,3.69.71,5.33,1.2,1.64.49,3.06,1.12,4.25,1.89,1.19.77,2.12,1.71,2.8,2.81.67,1.1,1.01,2.42,1.01,3.94,0,1.41-.34,2.7-1.01,3.88-.67,1.18-1.63,2.2-2.87,3.06-1.24.86-2.74,1.53-4.5,2.01s-3.72.72-5.89.72c-2.38,0-4.49-.31-6.31-.94s-3.35-1.44-4.58-2.45c-1.23-1.01-2.16-2.15-2.8-3.43-.63-1.28-.95-2.56-.95-3.85h7.76c.06.86.29,1.6.7,2.21s.94,1.11,1.58,1.49,1.38.66,2.21.83,1.68.26,2.56.26c2.01,0,3.54-.32,4.6-.97s1.58-1.47,1.58-2.49Z"/>
        <path d="m163.1,3.81v7.76h11.84v6.01h-11.84v13.62c0,1.15.13,2.11.4,2.89.26.77.64,1.39,1.13,1.85.49.46,1.08.79,1.77.98.69.2,1.47.29,2.33.29.62,0,1.26-.03,1.92-.09s1.28-.13,1.88-.22,1.15-.18,1.67-.28c.52-.1.96-.19,1.33-.29l.79,5.6c-.57.33-1.23.62-1.99.86-.76.24-1.57.44-2.43.6s-1.75.28-2.68.37-1.84.13-2.74.13c-1.74,0-3.32-.23-4.73-.69s-2.63-1.17-3.63-2.14-1.78-2.2-2.33-3.69-.82-3.29-.82-5.38v-14.41h-7.24v-6.01h7.24V3.81h8.14Z"/>
      </g>
      <g>
        <path class="cls-1" d="m20.85,82.31l-6.55,7.41H0l34.42-35.5h11.99l9.73,35.5h-13.53l-1.4-7.41h-20.37Zm19.26-5.83l-2.46-12.99-11.55,12.99h14.01Z"/>
        <path class="cls-1" d="m94.94,89.72l-11.17-23.14-7.94,23.14h-13.29l12.13-35.5h13.05l11.03,23.04,7.99-23.04h13.24l-12.18,35.5h-12.85Z"/>
        <path class="cls-1" d="m160.08,59.81l-10.25,29.91h-13.24l10.25-29.91h-20.7l1.93-5.58h54.93l-1.97,5.58h-20.94Z"/>
      </g>
      <polygon class="cls-1" points="176 102.23 0 102.23 7 97.23 183 97.23 176 102.23"/>
      <polygon class="cls-1" points="138.59 107.23 52.88 107.23 56.29 105.23 142 105.23 138.59 107.23"/>
    </g>
  </g>
</svg>