<?xml version="1.0" encoding="UTF-8"?>
<svg id="Layer_2" data-name="Layer 2" xmlns="http://www.w3.org/2000/svg" viewBox="0 0 178.86 109.51">
  <defs>
    <style>
      .cls-1 {
        fill: #006d77;
      }
    </style>
  </defs>
  <g id="Layer_1-2" data-name="Layer 1">
    <g>
      <g>
        <path d="m9.77,41.89h19.98v6.65H1.51V5.88h8.26v36.01Z"/>
        <path d="m52.63,49.13c-2.44,0-4.66-.4-6.65-1.2s-3.7-1.89-5.13-3.27c-1.43-1.38-2.52-3-3.3-4.86-.77-1.86-1.16-3.86-1.16-5.99v-1.17c0-2.42.38-4.63,1.14-6.64.76-2,1.83-3.73,3.19-5.17,1.37-1.45,2.99-2.57,4.86-3.37,1.88-.8,3.92-1.2,6.12-1.2s4.32.38,6.11,1.13c1.79.75,3.3,1.81,4.54,3.18,1.24,1.37,2.18,3.01,2.83,4.94.64,1.92.97,4.05.97,6.37v3.46h-21.5c.16,1.07.47,2.06.95,2.94.48.89,1.09,1.66,1.83,2.3.74.64,1.59,1.14,2.55,1.49.96.35,2,.53,3.13.53.8,0,1.6-.08,2.39-.23.79-.16,1.55-.39,2.27-.69.72-.3,1.4-.68,2.02-1.13.62-.45,1.17-.98,1.64-1.58l4.07,4.39c-.51.72-1.17,1.43-1.98,2.12-.81.69-1.77,1.31-2.87,1.85-1.1.54-2.33.97-3.68,1.3s-2.8.5-4.37.5Zm-.97-26.28c-.92,0-1.76.16-2.52.48s-1.43.79-2.01,1.39c-.58.61-1.06,1.33-1.45,2.17-.39.84-.68,1.78-.88,2.81h13.36v-.64c-.04-.86-.21-1.67-.5-2.43s-.71-1.42-1.26-1.98c-.55-.56-1.22-1-2.01-1.32s-1.7-.48-2.74-.48Z"/>
        <path d="m88.2,9.08v7.76h11.84v6.01h-11.84v13.62c0,1.15.13,2.11.4,2.89.26.77.64,1.39,1.13,1.85.49.46,1.08.79,1.77.98.69.2,1.47.29,2.33.29.62,0,1.26-.03,1.92-.09.65-.06,1.28-.13,1.88-.22.6-.09,1.15-.18,1.67-.28.52-.1.96-.19,1.33-.29l.79,5.6c-.57.33-1.23.62-1.99.86-.76.24-1.57.44-2.43.6-.86.16-1.75.28-2.68.37-.93.09-1.84.13-2.74.13-1.74,0-3.32-.23-4.73-.69-1.42-.46-2.63-1.17-3.63-2.14-1.01-.97-1.78-2.2-2.33-3.69-.55-1.49-.82-3.29-.82-5.38v-14.41h-7.24v-6.01h7.24v-7.76h8.14Z"/>
      </g>
      <g>
        <path class="cls-1" d="m10.19,100.91h23.98v7.98H.27v-51.19h9.91v43.21Z"/>
        <path class="cls-1" d="m41.22,92.75c0-2.3.33-4.44,1-6.4.66-1.96,1.64-3.67,2.92-5.11,1.28-1.45,2.84-2.58,4.69-3.4s3.96-1.23,6.34-1.23,4.5.41,6.36,1.23c1.86.82,3.42,1.95,4.7,3.4,1.28,1.45,2.25,3.15,2.92,5.11.66,1.96,1,4.1,1,6.4v.62c0,2.32-.33,4.47-1,6.43-.66,1.96-1.63,3.67-2.9,5.11-1.27,1.45-2.83,2.57-4.69,3.38-1.86.81-3.97,1.22-6.33,1.22s-4.51-.41-6.37-1.22c-1.87-.81-3.44-1.94-4.72-3.38-1.28-1.45-2.25-3.15-2.92-5.11-.66-1.96-1-4.11-1-6.43v-.62Zm8.14.62c0,1.33.13,2.57.38,3.74.25,1.16.65,2.18,1.2,3.05.55.87,1.25,1.56,2.12,2.07.87.51,1.92.76,3.15.76s2.22-.25,3.08-.76c.86-.51,1.56-1.2,2.09-2.07.54-.87.93-1.88,1.19-3.05.25-1.16.38-2.41.38-3.74v-.62c0-1.29-.13-2.51-.38-3.66-.25-1.15-.65-2.17-1.19-3.05-.54-.88-1.24-1.57-2.09-2.08-.86-.51-1.9-.76-3.13-.76s-2.25.25-3.11.76c-.86.51-1.56,1.2-2.11,2.08-.55.88-.95,1.89-1.2,3.05-.25,1.15-.38,2.37-.38,3.66v.62Z"/>
        <path class="cls-1" d="m90.27,95.79l-3.69,3.43v9.67h-8.14v-45h8.14v25.72l2.46-2.81,8.76-9.61h9.79l-11.95,13.21,13.62,18.49h-9.99l-8.99-13.1Z"/>
        <path class="cls-1" d="m134.15,108.89c-.2-.39-.36-.84-.5-1.35-.14-.51-.25-1.04-.35-1.61-.45.49-.97.95-1.55,1.38-.59.43-1.24.81-1.95,1.13-.71.32-1.5.58-2.36.76-.86.19-1.79.28-2.78.28-1.62,0-3.11-.23-4.47-.7-1.36-.47-2.52-1.12-3.5-1.96-.98-.84-1.74-1.84-2.29-3-.55-1.16-.82-2.43-.82-3.79,0-3.34,1.25-5.92,3.74-7.75,2.49-1.83,6.21-2.74,11.15-2.74h4.54v-1.88c0-1.52-.5-2.73-1.49-3.62-1-.89-2.43-1.33-4.31-1.33-1.66,0-2.87.36-3.63,1.07-.76.71-1.14,1.67-1.14,2.86h-8.14c0-1.35.3-2.63.89-3.84.6-1.21,1.46-2.27,2.61-3.19,1.14-.92,2.54-1.65,4.19-2.18,1.65-.54,3.54-.81,5.67-.81,1.91,0,3.7.23,5.35.7,1.65.47,3.08,1.16,4.29,2.08,1.21.92,2.16,2.08,2.84,3.47.68,1.4,1.03,3.01,1.03,4.85v13.59c0,1.7.11,3.11.32,4.22.21,1.11.53,2.07.94,2.87v.5h-8.26Zm-7.76-5.71c.82,0,1.58-.1,2.29-.29.7-.19,1.34-.45,1.9-.76.57-.31,1.05-.67,1.46-1.07.41-.4.73-.81.97-1.22v-5.45h-4.16c-1.27,0-2.35.12-3.25.37-.9.24-1.63.59-2.2,1.03-.57.44-.99.97-1.26,1.58-.27.62-.41,1.28-.41,2.01,0,1.09.39,2,1.16,2.72.77.72,1.94,1.08,3.5,1.08Z"/>
        <path class="cls-1" d="m152.05,63.89h17.72v38.38h9.08v6.62h-26.81v-6.62h9.49v-31.73h-9.49v-6.65Z"/>
      </g>
      <rect width="11" height="109"/>
    </g>
  </g>
</svg>